<svg width="108" height="55" viewBox="0 0 108 55" fill="none" xmlns="http://www.w3.org/2000/svg">
<path d="M14.063 14.972C19.4477 14.972 23.452 16.202 26.076 18.662C28.7 21.0947 30.012 24.5933 30.012 29.158C30.012 32.1373 29.3697 34.7477 28.085 36.989C26.8003 39.203 24.928 40.925 22.468 42.155C20.0353 43.385 17.1107 44 13.694 44C13.2567 44 12.6827 43.9863 11.972 43.959C11.2613 43.9317 10.5233 43.918 9.758 43.918C8.99267 43.8907 8.30933 43.877 7.708 43.877C6.50533 43.877 5.31633 43.8907 4.141 43.918C2.993 43.918 2.07733 43.9453 1.394 44V43.18C2.26867 43.1253 2.92467 43.016 3.362 42.852C3.79933 42.688 4.08633 42.36 4.223 41.868C4.387 41.376 4.469 40.638 4.469 39.654V19.318C4.469 18.3067 4.387 17.5687 4.223 17.104C4.08633 16.612 3.78567 16.284 3.321 16.12C2.88367 15.9287 2.24133 15.8193 1.394 15.792V14.972C2.07733 14.9993 2.993 15.0403 4.141 15.095C5.31633 15.1223 6.478 15.1223 7.626 15.095C8.61 15.0677 9.717 15.0403 10.947 15.013C12.2043 14.9857 13.243 14.972 14.063 14.972ZM14.022 15.71C12.7647 15.71 11.9447 15.9423 11.562 16.407C11.1793 16.8717 10.988 17.8147 10.988 19.236V39.736C10.988 41.1573 11.1793 42.1003 11.562 42.565C11.972 43.0297 12.8057 43.262 14.063 43.262C16.359 43.262 18.163 42.729 19.475 41.663C20.8143 40.5697 21.771 38.9843 22.345 36.907C22.919 34.8297 23.206 32.3013 23.206 29.322C23.206 26.2607 22.8917 23.7323 22.263 21.737C21.6617 19.7143 20.6913 18.211 19.352 17.227C18.0127 16.2157 16.236 15.71 14.022 15.71ZM43.3931 22.229C45.3884 22.229 47.1377 22.598 48.6411 23.336C50.1444 24.074 51.3197 25.263 52.1671 26.903C53.0144 28.543 53.4381 30.716 53.4381 33.422C53.4381 36.128 53.0144 38.301 52.1671 39.941C51.3197 41.5537 50.1444 42.729 48.6411 43.467C47.1377 44.205 45.3884 44.574 43.3931 44.574C41.4524 44.574 39.7167 44.205 38.1861 43.467C36.6827 42.729 35.4937 41.5537 34.6191 39.941C33.7717 38.301 33.3481 36.128 33.3481 33.422C33.3481 30.716 33.7717 28.543 34.6191 26.903C35.4937 25.263 36.6827 24.074 38.1861 23.336C39.7167 22.598 41.4524 22.229 43.3931 22.229ZM43.3931 23.049C42.2997 23.049 41.3841 23.869 40.6461 25.509C39.9081 27.1217 39.5391 29.7593 39.5391 33.422C39.5391 37.0847 39.9081 39.7223 40.6461 41.335C41.3841 42.9477 42.2997 43.754 43.3931 43.754C44.5137 43.754 45.4294 42.9477 46.1401 41.335C46.8781 39.7223 47.2471 37.0847 47.2471 33.422C47.2471 29.7593 46.8781 27.1217 46.1401 25.509C45.4294 23.869 44.5137 23.049 43.3931 23.049ZM70.1017 22.229C70.9763 22.229 71.687 22.4203 72.2337 22.803C72.7803 23.1583 73.1767 23.623 73.4227 24.197C73.696 24.771 73.8327 25.3723 73.8327 26.001C73.8327 27.0123 73.532 27.846 72.9307 28.502C72.3567 29.1307 71.5913 29.445 70.6347 29.445C69.678 29.445 68.9263 29.2127 68.3797 28.748C67.8603 28.256 67.6007 27.6137 67.6007 26.821C67.6007 26.0557 67.7647 25.427 68.0927 24.935C68.448 24.4157 68.8853 23.9783 69.4047 23.623C69.022 23.5137 68.6393 23.5273 68.2567 23.664C67.7373 23.746 67.2453 23.9647 66.7807 24.32C66.316 24.648 65.9197 25.0717 65.5917 25.591C65.2637 26.083 65.004 26.6297 64.8127 27.231C64.6213 27.805 64.5257 28.3653 64.5257 28.912V39.777C64.5257 41.089 64.84 41.9773 65.4687 42.442C66.1247 42.9067 67.095 43.139 68.3797 43.139V44C67.751 43.9727 66.8353 43.9453 65.6327 43.918C64.43 43.8633 63.1727 43.836 61.8607 43.836C60.7673 43.836 59.6603 43.8633 58.5397 43.918C57.419 43.9453 56.5717 43.9727 55.9977 44V43.139C56.9543 43.139 57.624 42.934 58.0067 42.524C58.4167 42.114 58.6217 41.335 58.6217 40.187V27.272C58.6217 26.042 58.4303 25.14 58.0477 24.566C57.6923 23.9647 57.009 23.664 55.9977 23.664V22.803C56.8723 22.885 57.7197 22.926 58.5397 22.926C59.6877 22.926 60.7537 22.885 61.7377 22.803C62.749 22.6937 63.6783 22.5433 64.5257 22.352V26.165C64.8537 25.427 65.291 24.7573 65.8377 24.156C66.3843 23.5547 67.013 23.09 67.7237 22.762C68.4343 22.4067 69.227 22.229 70.1017 22.229ZM80.7943 44.287C79.5643 44.287 78.5393 44.0547 77.7193 43.59C76.8993 43.1253 76.298 42.5103 75.9153 41.745C75.5327 40.9523 75.3413 40.0913 75.3413 39.162C75.3413 37.9867 75.601 37.03 76.1203 36.292C76.667 35.554 77.364 34.9527 78.2113 34.488C79.0587 34.0233 79.947 33.6407 80.8763 33.34C81.833 33.0393 82.735 32.7523 83.5823 32.479C84.457 32.1783 85.154 31.8367 85.6733 31.454C86.22 31.044 86.4933 30.5247 86.4933 29.896V26.698C86.4933 25.9873 86.3703 25.3587 86.1243 24.812C85.9057 24.238 85.5503 23.8007 85.0583 23.5C84.5937 23.1993 83.9787 23.049 83.2133 23.049C82.6667 23.049 82.12 23.131 81.5733 23.295C81.0267 23.4317 80.5757 23.6777 80.2203 24.033C80.9857 24.3063 81.5733 24.73 81.9833 25.304C82.4207 25.8507 82.6393 26.4793 82.6393 27.19C82.6393 28.1193 82.3113 28.8573 81.6553 29.404C81.0267 29.9507 80.275 30.224 79.4003 30.224C78.4163 30.224 77.6647 29.9233 77.1453 29.322C76.6533 28.6933 76.4073 27.9417 76.4073 27.067C76.4073 26.2743 76.5987 25.6183 76.9813 25.099C77.3913 24.5797 77.9517 24.0877 78.6623 23.623C79.4277 23.1857 80.3433 22.844 81.4093 22.598C82.5027 22.352 83.678 22.229 84.9353 22.229C86.1927 22.229 87.327 22.3657 88.3383 22.639C89.3497 22.885 90.197 23.3497 90.8803 24.033C91.509 24.6617 91.919 25.4407 92.1103 26.37C92.3017 27.272 92.3973 28.42 92.3973 29.814V40.966C92.3973 41.6493 92.4657 42.1277 92.6023 42.401C92.739 42.647 92.9713 42.77 93.2993 42.77C93.5453 42.77 93.7777 42.7017 93.9963 42.565C94.2423 42.4283 94.502 42.2643 94.7753 42.073L95.1853 42.77C94.6113 43.262 93.9417 43.6447 93.1763 43.918C92.4383 44.164 91.6047 44.287 90.6753 44.287C89.664 44.287 88.8577 44.1503 88.2563 43.877C87.655 43.5763 87.2177 43.18 86.9443 42.688C86.6983 42.196 86.5753 41.622 86.5753 40.966C85.9193 42.0047 85.1267 42.8247 84.1973 43.426C83.268 44 82.1337 44.287 80.7943 44.287ZM83.7053 41.663C84.252 41.663 84.744 41.54 85.1813 41.294C85.646 41.0207 86.0833 40.5833 86.4933 39.982V31.577C86.2473 31.987 85.9057 32.356 85.4683 32.684C85.031 33.012 84.5663 33.3537 84.0743 33.709C83.5823 34.037 83.104 34.406 82.6393 34.816C82.202 35.226 81.8467 35.7317 81.5733 36.333C81.3 36.9343 81.1633 37.6587 81.1633 38.506C81.1633 39.572 81.3957 40.3647 81.8603 40.884C82.325 41.4033 82.94 41.663 83.7053 41.663Z" fill="#15295F"/>
<circle cx="102.5" cy="38.5" r="5.5" fill="#FD6E0A"/>
</svg>
